<svg width="32" height="32" viewBox="0 0 32 32" fill="none" xmlns="http://www.w3.org/2000/svg">
<g clip-path="url(#clip0_6274_36040)">
<path d="M5.18346 12.8908L25.7376 7.67066C26.6285 7.38549 27.372 8.40259 26.8459 9.1868C26.8459 9.1868 15.5925 27.1809 15.5847 27.1936C15.1423 27.9002 14.2405 28.1679 13.4768 27.897C12.4943 27.5484 12.2692 26.6518 12.2258 25.6885C12.1838 24.7348 12.1419 23.7811 12.1 22.8273C12.0348 21.3556 11.8346 19.9551 10.6239 19.0013C9.70189 18.2757 8.57965 17.8765 7.5164 17.3901C6.4159 16.8863 4.09382 16.0799 4.00379 14.6604C3.95257 13.8604 4.42443 13.1332 5.18346 12.8924V12.8908Z" fill="url(#paint0_linear_6274_36040)"/>
<mask id="mask0_6274_36040" style="mask-type:luminance" maskUnits="userSpaceOnUse" x="4" y="7" width="24" height="22">
<path d="M5.18346 12.8908L25.7376 7.67066C26.6285 7.38549 27.372 8.40259 26.8459 9.1868C26.8459 9.1868 15.5925 27.1809 15.5847 27.1936C15.1423 27.9002 14.2405 28.1679 13.4768 27.897C12.4943 27.5484 12.2692 26.6518 12.2258 25.6885C12.1838 24.7348 12.1419 23.7811 12.1 22.8273C12.0348 21.3556 11.8346 19.9551 10.6239 19.0013C9.70189 18.2757 8.57965 17.8765 7.5164 17.3901C6.4159 16.8863 4.09382 16.0799 4.00379 14.6604C3.95257 13.8604 4.42443 13.1332 5.18346 12.8924V12.8908Z" fill="white"/>
</mask>
<g mask="url(#mask0_6274_36040)">
<path d="M17.9195 7.65801C17.9335 7.27303 17.9521 6.88647 17.9397 6.50149C17.9366 6.40168 17.9164 6.29237 17.8792 6.1783L17.0115 6.04205C17.0721 7.1146 13.5144 11.4903 12.209 14.0648C11.1147 16.2241 11.436 17.2412 14.0344 15.4177C17.6696 12.8687 21.5377 10.7045 25.3359 8.42321C26.23 7.88614 27.1194 7.34115 28.0026 6.78824C27.8536 6.53793 27.1178 6.30821 26.4535 6.35574C26.4302 6.35574 26.3868 6.37158 26.32 6.38584C25.1621 6.64724 17.8761 8.87631 17.9195 7.65959V7.65801Z" fill="url(#paint1_linear_6274_36040)"/>
</g>
<path d="M26.9382 9.01096C26.9848 8.80343 26.9537 8.54836 26.828 8.37409C26.7147 8.21725 26.5378 8.11427 26.3577 8.05565C26.3313 8.04615 26.3034 8.03822 26.277 8.03189C26.01 7.96376 25.7648 8.01446 25.5087 8.09684C25.1936 8.19982 24.8955 8.36934 24.6053 8.52459C24.3678 8.65134 24.1334 8.78441 23.8959 8.91116C22.724 9.54169 13.6297 15.3068 13.5242 15.3132C13.2386 15.4843 12.7046 15.8471 12.3864 15.5556C11.9828 15.3338 12.7527 13.8652 13.3984 12.6199C13.549 12.33 13.7073 12.0448 13.9386 11.5521C14.3841 10.5984 14.6045 10.1136 14.5533 9.68745C14.499 9.22643 14.1544 8.88581 13.4698 8.22675C12.4951 7.28728 11.4349 6.44604 10.4431 5.52716C10.291 5.38616 10.1885 5.1707 10.2816 4.98059C10.3484 4.84593 10.516 4.81741 10.6635 4.80157C11.095 4.75404 18.5874 6.18463 25.6297 7.38868C25.7182 7.40293 25.8051 7.42987 25.8905 7.4568C26.0814 7.51542 26.2677 7.59146 26.4431 7.68969C26.634 7.799 26.8172 7.94 26.9336 8.1317C27.0624 8.3424 27.0795 8.58955 27.0096 8.82561C26.991 8.88898 26.9646 8.95076 26.9382 9.01096Z" fill="url(#paint2_linear_6274_36040)"/>
</g>
<defs>
<linearGradient id="paint0_linear_6274_36040" x1="30.1609" y1="16.723" x2="2.93188" y2="19.5552" gradientUnits="userSpaceOnUse">
<stop stop-color="#1E00BF"/>
<stop offset="0.34" stop-color="#259ABA"/>
<stop offset="0.69" stop-color="#5EE4C6"/>
<stop offset="1" stop-color="#00FF2D"/>
</linearGradient>
<linearGradient id="paint1_linear_6274_36040" x1="32.0067" y1="13.7615" x2="-5.64541" y2="6.8311" gradientUnits="userSpaceOnUse">
<stop stop-color="#1E00BF"/>
<stop offset="0.34" stop-color="#259ABA"/>
<stop offset="0.69" stop-color="#5EE4C6"/>
<stop offset="1" stop-color="#00FF2D"/>
</linearGradient>
<linearGradient id="paint2_linear_6274_36040" x1="18.648" y1="0.0297574" x2="18.648" y2="15.8962" gradientUnits="userSpaceOnUse">
<stop stop-color="#CEAB69"/>
<stop offset="0.04" stop-color="#A8824A"/>
<stop offset="0.08" stop-color="#8B6133"/>
<stop offset="0.12" stop-color="#764A21"/>
<stop offset="0.15" stop-color="#693C17"/>
<stop offset="0.18" stop-color="#653814"/>
<stop offset="0.32" stop-color="#AF8950"/>
<stop offset="0.39" stop-color="#CFAC6A"/>
<stop offset="0.46" stop-color="#D9BA7F"/>
<stop offset="0.59" stop-color="#E8D09F"/>
<stop offset="0.72" stop-color="#F3E0B6"/>
<stop offset="0.83" stop-color="#F9E9C4"/>
<stop offset="0.94" stop-color="#FCEDC9"/>
</linearGradient>
<clipPath id="clip0_6274_36040">
<rect width="24" height="23.2" fill="white" transform="translate(4 4.79999)"/>
</clipPath>
</defs>
</svg>
